<svg width="45" height="44" viewBox="0 0 45 44" fill="none" xmlns="http://www.w3.org/2000/svg">
<g id="github">
<path id="Vector" d="M22.5 2.75C11.8644 2.75 3.25 11.3644 3.25 22C3.25 30.5181 8.76031 37.7128 16.4122 40.2634C17.3747 40.4319 17.7356 39.8544 17.7356 39.3491C17.7356 38.8919 17.7116 37.3759 17.7116 35.7637C12.875 36.6541 11.6237 34.5847 11.2387 33.5019C11.0222 32.9484 10.0838 31.24 9.26562 30.7828C8.59188 30.4219 7.62937 29.5316 9.24156 29.5075C10.7575 29.4834 11.8403 30.9031 12.2013 31.4806C13.9338 34.3922 16.7009 33.5741 17.8078 33.0687C17.9763 31.8175 18.4816 30.9753 19.035 30.4941C14.7519 30.0128 10.2763 28.3525 10.2763 20.9894C10.2763 18.8959 11.0222 17.1634 12.2494 15.8159C12.0569 15.3347 11.3831 13.3616 12.4419 10.7147C12.4419 10.7147 14.0541 10.2094 17.7356 12.6878C19.2756 12.2547 20.9119 12.0381 22.5481 12.0381C24.1844 12.0381 25.8206 12.2547 27.3606 12.6878C31.0422 10.1853 32.6544 10.7147 32.6544 10.7147C33.7131 13.3616 33.0394 15.3347 32.8469 15.8159C34.0741 17.1634 34.82 18.8719 34.82 20.9894C34.82 28.3766 30.3203 30.0128 26.0372 30.4941C26.735 31.0956 27.3366 32.2506 27.3366 34.0553C27.3366 36.63 27.3125 38.6994 27.3125 39.3491C27.3125 39.8544 27.6734 40.4559 28.6359 40.2634C32.4574 38.9733 35.7781 36.5173 38.1306 33.2411C40.4831 29.9648 41.749 26.0334 41.75 22C41.75 11.3644 33.1356 2.75 22.5 2.75Z" fill="#FEFEFE"/>
</g>
</svg>
