<svg width="32" height="33" viewBox="0 0 32 33" fill="none" xmlns="http://www.w3.org/2000/svg">
<g id="github">
<path id="Vector" d="M16 2.59961C8.265 2.59961 2 8.86461 2 16.5996C2 22.7946 6.0075 28.0271 11.5725 29.8821C12.2725 30.0046 12.535 29.5846 12.535 29.2171C12.535 28.8846 12.5175 27.7821 12.5175 26.6096C9 27.2571 8.09 25.7521 7.81 24.9646C7.6525 24.5621 6.97 23.3196 6.375 22.9871C5.885 22.7246 5.185 22.0771 6.3575 22.0596C7.46 22.0421 8.2475 23.0746 8.51 23.4946C9.77 25.6121 11.7825 25.0171 12.5875 24.6496C12.71 23.7396 13.0775 23.1271 13.48 22.7771C10.365 22.4271 7.11 21.2196 7.11 15.8646C7.11 14.3421 7.6525 13.0821 8.545 12.1021C8.405 11.7521 7.915 10.3171 8.685 8.39211C8.685 8.39211 9.8575 8.02461 12.535 9.82711C13.655 9.51211 14.845 9.35461 16.035 9.35461C17.225 9.35461 18.415 9.51211 19.535 9.82711C22.2125 8.00711 23.385 8.39211 23.385 8.39211C24.155 10.3171 23.665 11.7521 23.525 12.1021C24.4175 13.0821 24.96 14.3246 24.96 15.8646C24.96 21.2371 21.6875 22.4271 18.5725 22.7771C19.08 23.2146 19.5175 24.0546 19.5175 25.3671C19.5175 27.2396 19.5 28.7446 19.5 29.2171C19.5 29.5846 19.7625 30.0221 20.4625 29.8821C23.2418 28.9439 25.6568 27.1577 27.3677 24.7749C29.0786 22.3922 29.9993 19.533 30 16.5996C30 8.86461 23.735 2.59961 16 2.59961Z" fill="#1D1D1D"/>
</g>
</svg>
