<svg width="45" height="44" viewBox="0 0 45 44" fill="none" xmlns="http://www.w3.org/2000/svg">
<path fill-rule="evenodd" clip-rule="evenodd" d="M22.5 2.75C11.8685 2.75 3.25 11.3685 3.25 22C3.25 32.6315 11.8685 41.25 22.5 41.25C33.1315 41.25 41.75 32.6315 41.75 22C41.75 11.3685 33.1315 2.75 22.5 2.75ZM17.8505 13.3267C17.8505 14.6117 16.7367 15.6534 15.3628 15.6534C13.9888 15.6534 12.875 14.6117 12.875 13.3267C12.875 12.0417 13.9888 11 15.3628 11C16.7367 11 17.8505 12.0417 17.8505 13.3267ZM13.2152 17.3636H17.4678V30.25H13.2152V17.3636ZM20.0619 17.3636H24.3144V19.0169C25.0282 18.1088 26.3987 17.1051 28.6095 17.1051C32.3324 17.1051 33.464 19.1061 33.5 23.4489V30.25H29.2474C29.2474 29.4095 29.2416 28.5646 29.2358 27.7199V27.7198V27.7198C29.2275 26.5218 29.2192 25.3243 29.2276 24.141C29.2385 22.5975 29.2526 20.6051 26.9085 20.6051C24.8343 20.6051 24.3144 22.1342 24.3144 23.6567V30.25H20.0619V17.3636Z" fill="#FEFEFE"/>
</svg>
