<svg width="32" height="33" viewBox="0 0 32 33" fill="none" xmlns="http://www.w3.org/2000/svg">
<g id="linkedin">
<rect id="bg" x="2" y="2.59961" width="28" height="28" rx="14" fill="#1D1D1D"/>
<g id="linked_in">
<path d="M12.6186 10.2918C12.6186 11.2263 11.8085 11.9839 10.8093 11.9839C9.81004 11.9839 9 11.2263 9 10.2918C9 9.35721 9.81004 8.59961 10.8093 8.59961C11.8085 8.59961 12.6186 9.35721 12.6186 10.2918Z" fill="white"/>
<path d="M9.24742 13.2277H12.3402V22.5996H9.24742V13.2277Z" fill="white"/>
<path d="M17.3196 13.2277H14.2268V22.5996H17.3196C17.3196 22.5996 17.3196 19.6492 17.3196 17.8045C17.3196 16.6972 17.6977 15.5851 19.2062 15.5851C20.911 15.5851 20.9008 17.0341 20.8928 18.1567C20.8824 19.624 20.9072 21.1215 20.9072 22.5996H24V17.6533C23.9738 14.495 23.1508 13.0397 20.4433 13.0397C18.8354 13.0397 17.8387 13.7697 17.3196 14.4301V13.2277Z" fill="white"/>
</g>
</g>
</svg>
