<svg width="41" height="39" viewBox="0 0 41 39" fill="none" xmlns="http://www.w3.org/2000/svg">
<g clip-path="url(#clip0_2627_3304)">
<path fill-rule="evenodd" clip-rule="evenodd" d="M20.5 0C9.86852 0 1.25 8.61852 1.25 19.25C1.25 29.8815 9.86852 38.5 20.5 38.5C31.1315 38.5 39.75 29.8815 39.75 19.25C39.75 8.61852 31.1315 0 20.5 0ZM30.1989 9.28076H26.825L21.2637 15.6513L16.4614 9.28233H9.5L17.8144 20.1833L9.93214 29.219H13.3091L19.3906 22.2498L24.7114 29.219H31.5L22.8289 17.7256L30.1989 9.28076ZM27.5086 27.195H25.6386L13.4349 11.1995H15.44L27.5086 27.195Z" fill="#E7E7E7"/>
</g>
<defs>
<clipPath id="clip0_2627_3304">
<rect x="0.5" width="40" height="38.5" rx="19.25" fill="white"/>
</clipPath>
</defs>
</svg>
