<svg width="24" height="25" viewBox="0 0 24 25" fill="none" xmlns="http://www.w3.org/2000/svg">
<path id="Vector" d="M12 0.0996094C9.62663 0.0996094 7.30655 0.803397 5.33316 2.12197C3.35977 3.44055 1.8217 5.31469 0.913451 7.50741C0.00519941 9.70012 -0.232441 12.1129 0.230582 14.4407C0.693605 16.7685 1.83649 18.9067 3.51472 20.5849C5.19295 22.2631 7.33115 23.406 9.65892 23.869C11.9867 24.3321 14.3995 24.0944 16.5922 23.1862C18.7849 22.2779 20.6591 20.7398 21.9776 18.7664C23.2962 16.7931 24 14.473 24 12.0996C23.9966 8.91804 22.7313 5.86775 20.4816 3.61804C18.2319 1.36833 15.1816 0.102969 12 0.0996094ZM12 22.2535C9.99176 22.2535 8.02862 21.6579 6.35883 20.5422C4.68904 19.4265 3.38759 17.8407 2.61907 15.9853C1.85055 14.1299 1.64947 12.0883 2.04126 10.1187C2.43305 8.14904 3.40011 6.3398 4.82015 4.91975C6.24019 3.49971 8.04943 2.53265 10.0191 2.14087C11.9887 1.74908 14.0303 1.95016 15.8857 2.71868C17.7411 3.4872 19.3269 4.78864 20.4426 6.45843C21.5583 8.12822 22.1538 10.0914 22.1538 12.0996C22.1508 14.7916 21.08 17.3725 19.1765 19.2761C17.2729 21.1796 14.692 22.2504 12 22.2535ZM8.3077 12.0996C8.3077 12.8746 8.55153 13.6299 9.00465 14.2585C9.45777 14.8872 10.0972 15.3574 10.8324 15.6024C11.5676 15.8475 12.3612 15.855 13.1009 15.624C13.8406 15.3929 14.4889 14.935 14.9538 14.315C15.1009 14.1191 15.3197 13.9897 15.5622 13.9552C15.8046 13.9207 16.0509 13.9839 16.2467 14.131C16.4426 14.278 16.572 14.4968 16.6065 14.7393C16.641 14.9817 16.5778 15.228 16.4308 15.4238C15.7331 16.3535 14.7607 17.0401 13.6512 17.3865C12.5417 17.7328 11.3514 17.7213 10.2488 17.3536C9.14616 16.9859 8.18717 16.2807 7.50762 15.3377C6.82808 14.3948 6.46241 13.2619 6.46241 12.0996C6.46241 10.9373 6.82808 9.80446 7.50762 8.8615C8.18717 7.91855 9.14616 7.21329 10.2488 6.84559C11.3514 6.47789 12.5417 6.4664 13.6512 6.81275C14.7607 7.15909 15.7331 7.84572 16.4308 8.77538C16.5036 8.87235 16.5566 8.98272 16.5867 9.10018C16.6169 9.21763 16.6236 9.33988 16.6065 9.45993C16.5894 9.57999 16.5489 9.6955 16.4871 9.79988C16.4254 9.90426 16.3437 9.99545 16.2467 10.0683C16.1498 10.1411 16.0394 10.1941 15.9219 10.2242C15.8045 10.2544 15.6822 10.2611 15.5622 10.244C15.4421 10.2269 15.3266 10.1863 15.2222 10.1246C15.1179 10.0629 15.0267 9.9812 14.9538 9.88422C14.4889 9.26426 13.8406 8.80632 13.1009 8.57525C12.3612 8.34418 11.5676 8.35172 10.8324 8.59678C10.0972 8.84184 9.45777 9.312 9.00465 9.94068C8.55153 10.5693 8.3077 11.3247 8.3077 12.0996Z" fill="black"/>
</svg>
