<svg width="51" height="40" viewBox="0 0 51 40" fill="none" xmlns="http://www.w3.org/2000/svg">
<g clip-path="url(#clip0_201_13)">
<path d="M48.5209 14.5153C45.353 9.1476 38.1471 0.141846 25.5 0.141846C12.853 0.141846 5.64708 9.1476 2.47919 14.5153C1.49988 16.1633 0.98114 18.0625 0.98114 20C0.98114 21.9375 1.49988 23.8366 2.47919 25.4846C5.64708 30.8523 12.853 39.8581 25.5 39.8581C38.1471 39.8581 45.353 30.8523 48.5209 25.4846C49.5002 23.8366 50.0189 21.9375 50.0189 20C50.0189 18.0625 49.5002 16.1633 48.5209 14.5153ZM45.0384 23.2597C42.3178 27.8625 36.1597 35.6081 25.5 35.6081C14.8403 35.6081 8.68221 27.8625 5.96163 23.2597C5.37979 22.2802 5.07161 21.1515 5.07161 20C5.07161 18.8485 5.37979 17.7197 5.96163 16.7402C8.68221 12.1375 14.8403 4.39185 25.5 4.39185C36.1597 4.39185 42.3178 12.129 45.0384 16.7402C45.6203 17.7197 45.9284 18.8485 45.9284 20C45.9284 21.1515 45.6203 22.2802 45.0384 23.2597Z" fill="#909090"/>
<path d="M25.5 9.375C23.4802 9.375 21.5057 9.99815 19.8263 11.1656C18.1469 12.3331 16.8379 13.9925 16.065 15.934C15.292 17.8755 15.0898 20.0118 15.4838 22.0728C15.8779 24.1339 16.8505 26.0271 18.2787 27.513C19.707 28.9989 21.5267 30.0109 23.5077 30.4208C25.4887 30.8308 27.5421 30.6204 29.4081 29.8162C31.2742 29.012 32.8692 27.6502 33.9913 25.9029C35.1135 24.1557 35.7124 22.1014 35.7124 20C35.7092 17.1831 34.6322 14.4826 32.7177 12.4907C30.8032 10.4989 28.2075 9.37837 25.5 9.375ZM25.5 26.375C24.2881 26.375 23.1034 26.0011 22.0958 25.3006C21.0881 24.6001 20.3028 23.6045 19.839 22.4396C19.3752 21.2747 19.2539 19.9929 19.4903 18.7563C19.7267 17.5197 20.3103 16.3838 21.1673 15.4922C22.0242 14.6006 23.116 13.9935 24.3046 13.7475C25.4932 13.5015 26.7252 13.6278 27.8449 14.1103C28.9645 14.5928 29.9215 15.4099 30.5948 16.4582C31.2681 17.5066 31.6275 18.7391 31.6275 20C31.6275 21.6908 30.9819 23.3123 29.8328 24.5078C28.6837 25.7034 27.1251 26.375 25.5 26.375Z" fill="#909090"/>
</g>
<defs>
<clipPath id="clip0_201_13">
<rect width="50" height="40" fill="white" transform="translate(0.5)"/>
</clipPath>
</defs>
</svg>
