<svg width="51" height="60" viewBox="0 0 51 60" fill="none" xmlns="http://www.w3.org/2000/svg">
<path d="M49.4521 46.7582C48.5544 48.8545 47.4918 50.784 46.2607 52.558C44.5825 54.9765 43.2085 56.6505 42.1496 57.5801C40.5081 59.106 38.7493 59.8874 36.866 59.9319C35.5139 59.9319 33.8834 59.543 31.9854 58.7542C30.0812 57.969 28.3312 57.5801 26.7311 57.5801C25.053 57.5801 23.2532 57.969 21.3281 58.7542C19.4 59.543 17.8468 59.9541 16.6593 59.9949C14.8533 60.0726 13.0531 59.2689 11.2563 57.5801C10.1094 56.569 8.67492 54.8357 6.95647 52.3803C5.11271 49.7581 3.59688 46.7175 2.40935 43.2509C1.13755 39.5066 0.5 35.8808 0.5 32.3705C0.5 28.3495 1.35959 24.8815 3.08134 21.9753C4.43449 19.6409 6.23465 17.7995 8.48769 16.4477C10.7407 15.0958 13.1751 14.407 15.7968 14.3629C17.2313 14.3629 19.1124 14.8114 21.4501 15.6929C23.7812 16.5773 25.278 17.0258 25.9342 17.0258C26.4248 17.0258 28.0876 16.5014 30.9063 15.4558C33.572 14.4862 35.8217 14.0848 37.6647 14.2429C42.6589 14.6503 46.4109 16.6402 48.9061 20.2253C44.4396 22.9608 42.2302 26.7922 42.2742 31.7072C42.3145 35.5356 43.6885 38.7214 46.3889 41.251C47.6127 42.425 48.9794 43.3324 50.5 43.9768C50.1702 44.9435 49.8222 45.8694 49.4521 46.7582ZM37.9982 1.20034C37.9982 4.20103 36.9136 7.00276 34.7518 9.59601C32.143 12.6789 28.9875 14.4603 25.5656 14.1792C25.522 13.8192 25.4967 13.4403 25.4967 13.0422C25.4967 10.1616 26.7374 7.07868 28.9406 4.55802C30.0405 3.28176 31.4395 2.22057 33.1359 1.37404C34.8287 0.540137 36.4299 0.0789726 37.9359 0C37.9799 0.401145 37.9982 0.802354 37.9982 1.20034Z" fill="black"/>
</svg>
